<?xml version="1.0" ?><!DOCTYPE svg  PUBLIC '-//W3C//DTD SVG 1.1//EN'  'http://www.w3.org/Graphics/SVG/1.1/DTD/svg11.dtd'><svg height="512px" style="enable-background:new 0 0 512 512;" version="1.1" viewBox="0 0 512 512" width="512px" xml:space="preserve" xmlns="http://www.w3.org/2000/svg" xmlns:xlink="http://www.w3.org/1999/xlink"><g id="_x32_40-OpenSource_x2C__open_source"><g><g id="_x35_7-open_source_4_"><g><g><path d="M256.001,32.714c-126.816,0-230,103.465-230,230.621c0,94.874,59.309,181.271,147.543,214.97       c3.681,1.467,7.82,1.237,11.386-0.493c3.565-1.754,6.269-4.87,7.446-8.673l43.123-138.086       c2.044-6.55-0.775-13.637-6.754-16.923c-18.658-10.319-30.243-29.781-30.243-50.795c0-31.799,25.784-57.657,57.499-57.657       c31.707,0,57.495,25.858,57.495,57.657c0,21.014-11.585,40.476-30.241,50.827c-5.98,3.283-8.825,10.377-6.755,16.924       l43.122,138.079c1.182,3.804,3.882,6.919,7.442,8.678c1.984,0.951,4.145,1.443,6.274,1.443c1.719,0,3.473-0.315,5.119-0.953       c88.253-33.725,147.541-120.124,147.541-214.995C485.998,136.179,382.815,32.714,256.001,32.714L256.001,32.714z" style="fill:#3DA639;"/></g></g></g></g></g><g id="Layer_1"/></svg>