<svg version="1.1" id="_x32_" xmlns="http://www.w3.org/2000/svg" xmlns:xlink="http://www.w3.org/1999/xlink" viewBox="0 0 512 512" xml:space="preserve" fill="#fbff00" stroke="#fbff00"><g id="SVGRepo_bgCarrier" stroke-width="0"></g><g id="SVGRepo_tracerCarrier" stroke-linecap="round" stroke-linejoin="round"></g><g id="SVGRepo_iconCarrier"> <style type="text/css">  .st0{fill:#000000;}  </style> <g> <path class="st0" d="M34.044,278.031c-0.641-0.516-1.531-0.594-2.266-0.234c-0.734,0.391-1.172,1.172-1.109,2l3.219,50.547 c0.078,0.891-0.453,1.719-1.297,2.063L1.326,344.828c-0.719,0.297-1.219,0.953-1.313,1.703c-0.078,0.766,0.266,1.516,0.891,1.953 l83.922,50.922c0.578,0.406,1.328,0.484,1.969,0.203c0.672-0.266,1.141-0.859,1.266-1.563l12.641-71.875 c0.141-0.75-0.156-1.5-0.734-1.984L34.044,278.031z"></path> <path class="st0" d="M479.419,332.406c-0.828-0.344-1.359-1.172-1.313-2.063l3.25-50.547c0.047-0.828-0.391-1.609-1.125-2 c-0.734-0.359-1.625-0.281-2.266,0.234l-65.922,46.156c-0.578,0.484-0.875,1.234-0.734,1.984l12.656,71.875 c0.109,0.703,0.578,1.297,1.234,1.563c0.672,0.281,1.406,0.203,2-0.203l83.906-50.922c0.641-0.438,0.969-1.188,0.875-1.953 c-0.078-0.75-0.578-1.406-1.281-1.703L479.419,332.406z"></path> <path class="st0" d="M255.998,392.469c-48.422,0-94.266-11.25-135.109-31.203l-13.156,74.75 c45.609,19.281,95.719,29.953,148.266,29.953s102.672-10.672,148.281-29.953l-13.172-74.75 C350.294,381.219,304.451,392.469,255.998,392.469z"></path> <polygon class="st0" points="74.873,186.625 81.388,199.797 95.919,201.906 85.404,212.156 87.873,226.641 74.873,219.797 61.873,226.641 64.357,212.156 53.826,201.906 68.373,199.797 "></polygon> <polygon class="st0" points="137.373,82.578 143.873,95.75 158.419,97.859 147.888,108.109 150.373,122.594 137.373,115.766 124.357,122.594 126.857,108.109 116.326,97.859 130.873,95.75 "></polygon> <polygon class="st0" points="437.138,186.625 430.638,199.797 416.106,201.906 426.622,212.156 424.138,226.641 437.138,219.797 450.153,226.641 447.669,212.156 458.185,201.906 443.638,199.797 "></polygon> <polygon class="st0" points="374.654,82.578 368.154,95.75 353.607,97.859 364.123,108.109 361.654,122.594 374.654,115.766 387.653,122.594 385.169,108.109 395.7,97.859 381.154,95.75 "></polygon> <polygon class="st0" points="251.498,46.031 257.998,59.203 272.544,61.328 262.013,71.578 264.498,86.063 251.498,79.219 238.498,86.063 240.982,71.578 230.451,61.328 244.998,59.203 "></polygon> <path class="st0" d="M236.091,129.266c3.344-6.766,10.219-11.047,17.75-11.047c7.547,0,14.438,4.281,17.766,11.047l19.703,39.922 c2.891,5.844,8.469,9.906,14.906,10.844l44.063,6.391c7.469,1.094,13.672,6.313,16,13.484s0.391,15.031-5.016,20.297 l-31.875,31.078c-4.672,4.547-6.797,11.109-5.703,17.531l7.531,43.891c1.266,7.422-1.781,14.922-7.875,19.359 c-6.109,4.438-14.188,5.016-20.859,1.5l-39.422-20.719c-5.766-3.031-12.656-3.031-18.422,0l-39.406,20.719 c-6.688,3.516-14.75,2.938-20.875-1.5c-6.094-4.438-9.141-11.938-7.875-19.359l7.531-43.891c1.109-6.422-1.031-12.984-5.688-17.531 l-31.891-31.078c-5.391-5.266-7.328-13.125-5-20.297s8.531-12.391,15.984-13.484l44.063-6.391c6.438-0.938,12.031-5,14.906-10.844 L236.091,129.266z"></path> </g> </g></svg>